<?xml version="1.0" encoding="UTF-8" standalone="no"?>
<svg
   xmlns:dc="http://purl.org/dc/elements/1.1/"
   xmlns:cc="http://creativecommons.org/ns#"
   xmlns:rdf="http://www.w3.org/1999/02/22-rdf-syntax-ns#"
   xmlns:svg="http://www.w3.org/2000/svg"
   xmlns="http://www.w3.org/2000/svg"
   xmlns:sodipodi="http://sodipodi.sourceforge.net/DTD/sodipodi-0.dtd"
   xmlns:inkscape="http://www.inkscape.org/namespaces/inkscape"
   width="100mm"
   height="80mm"
   viewBox="0 0 100 80"
   version="1.1"
   id="svg8"
   inkscape:version="1.0.1 (3bc2e813f5, 2020-09-07)"
   sodipodi:docname="budowa.svg">
  <defs
     id="defs2" />
  <sodipodi:namedview
     id="base"
     pagecolor="#ffffff"
     bordercolor="#666666"
     borderopacity="1.0"
     inkscape:pageopacity="0.0"
     inkscape:pageshadow="2"
     inkscape:zoom="0.98994949"
     inkscape:cx="246.06131"
     inkscape:cy="117.40574"
     inkscape:document-units="mm"
     inkscape:current-layer="layer1"
     inkscape:document-rotation="0"
     showgrid="false"
     inkscape:window-width="1346"
     inkscape:window-height="967"
     inkscape:window-x="26"
     inkscape:window-y="26"
     inkscape:window-maximized="0" />
  <metadata
     id="metadata5">
    <rdf:RDF>
      <cc:Work
         rdf:about="">
        <dc:format>image/svg+xml</dc:format>
        <dc:type
           rdf:resource="http://purl.org/dc/dcmitype/StillImage" />
        <dc:title />
      </cc:Work>
    </rdf:RDF>
  </metadata>
  <g
     inkscape:label="Layer 1"
     inkscape:groupmode="layer"
     id="layer1">
    <path
       style="fill:#ffffff;stroke-width:0.392991"
       d="m 29.624305,77.417131 c -5.241202,-1.453847 -7.979752,-6.344123 -7.95416,-14.203894 0.0082,-2.49744 0.250645,-4.717772 0.665322,-6.091363 0.358888,-1.1888 2.494316,-5.344682 4.745397,-9.235296 l 4.092871,-7.073841 2.895715,0.02402 c 2.828506,0.02342 8.201092,1.408417 8.201092,2.114135 0,0.168082 -0.602996,1.612643 -1.339998,3.210137 -2.825719,6.124895 -3.84768,10.960853 -2.316284,10.960853 1.663456,0 5.21122,-3.558949 8.724659,-8.752143 0.774134,-1.144258 1.450267,-1.771326 1.735167,-1.609269 1.622817,0.92311 4.054823,3.297204 5.609598,5.476026 l 1.807576,2.5331 -4.235928,7.33699 c -2.329771,4.03534 -4.7508,7.923372 -5.380057,8.640071 -1.724458,1.964052 -6.588098,5.052586 -9.389057,5.962301 -3.404166,1.105625 -5.687588,1.311314 -7.861913,0.708181 z m 8.609297,-4.412485 c 4.345619,-2.105718 6.260822,-4.177194 10.29038,-11.130071 3.375556,-5.824408 3.485708,-6.090019 2.897699,-6.987434 -0.734418,-1.120871 -0.29809,-1.675028 -4.84139,6.148874 -1.814914,3.125432 -4.013398,6.38099 -4.885519,7.234576 -2.069959,2.025964 -5.781628,4.42373 -8.149777,5.264821 -1.036867,0.368265 -1.885213,0.824988 -1.885213,1.014939 0,0.691095 3.803115,-0.203134 6.57382,-1.545705 z m 0.708825,-17.434822 c -0.306853,-0.496508 1.116457,-4.658827 2.613735,-7.643557 2.779303,-5.540383 7.585803,-13.172667 6.478689,-10.287571 -0.449518,1.171428 -0.771476,3.763528 -0.46746,3.763528 0.158632,0 0.977044,-0.545398 1.818701,-1.211997 0.841643,-0.6666 1.530267,-1.081878 1.530267,-0.922847 0,1.071432 -7.338734,12.580268 -9.568291,15.005307 -1.576564,1.714798 -2.004797,1.945703 -2.405641,1.297137 z M 48.68159,37.570558 c 0.222501,-1.80588 2.874156,-7.378528 8.966899,-18.84461 l 2.339203,-4.40218 1.829128,1.160003 c 1.006023,0.638002 2.059785,1.160004 2.341684,1.160004 0.281899,0 0.51254,0.162164 0.51254,0.360367 0,0.856451 -12.02228,19.249259 -13.57147,20.762912 -2.257005,2.205223 -2.70939,2.16846 -2.417984,-0.196496 z M 63.279327,15.512092 c -2.81703,-1.279598 -4.896139,-4.470603 -4.896139,-7.5145687 0,-1.8210761 1.686924,-5.5014349 2.521615,-5.5014349 0.603115,0 12.697567,6.8284804 13.522603,7.6348016 0.797113,0.779016 -1.535198,4.347614 -3.494812,5.347334 -1.959659,0.999744 -5.492481,1.015377 -7.653267,0.03386 z m 6.26972,-1.856932 c 0.783403,-0.300622 0.418415,-0.941299 -0.536246,-0.941299 -0.396402,0 -0.822526,-0.26527 -0.946952,-0.589487 -0.12447,-0.324219 -0.563783,-0.589487 -0.976405,-0.589487 -0.412608,0 -0.970346,-0.265269 -1.239427,-0.589486 -0.269066,-0.324219 -0.734565,-0.589487 -1.034437,-0.589487 -0.299871,0 -0.848059,-0.353692 -1.218201,-0.7859832 -0.370127,-0.432291 -0.978574,-0.785983 -1.352088,-0.785983 -0.373514,0 -0.87631,-0.30948 -1.117318,-0.6877338 -0.352987,-0.5539907 -0.399685,-0.4004159 -0.240132,0.7897158 0.251198,1.8736572 1.430454,3.5388382 3.082963,4.3533282 1.286496,0.634086 4.403948,0.866518 5.578243,0.415902 z"
       id="path883" />
  </g>
</svg>
