<?xml version="1.0" encoding="UTF-8" standalone="no"?>
<svg
   xmlns:dc="http://purl.org/dc/elements/1.1/"
   xmlns:cc="http://creativecommons.org/ns#"
   xmlns:rdf="http://www.w3.org/1999/02/22-rdf-syntax-ns#"
   xmlns:svg="http://www.w3.org/2000/svg"
   xmlns="http://www.w3.org/2000/svg"
   xmlns:sodipodi="http://sodipodi.sourceforge.net/DTD/sodipodi-0.dtd"
   xmlns:inkscape="http://www.inkscape.org/namespaces/inkscape"
   width="100mm"
   height="80mm"
   viewBox="0 0 100 80"
   version="1.1"
   id="svg8"
   inkscape:version="1.0.1 (3bc2e813f5, 2020-09-07)"
   sodipodi:docname="oddanie.svg">
  <defs
     id="defs2" />
  <sodipodi:namedview
     id="base"
     pagecolor="#ffffff"
     bordercolor="#666666"
     borderopacity="1.0"
     inkscape:pageopacity="0.0"
     inkscape:pageshadow="2"
     inkscape:zoom="0.98994949"
     inkscape:cx="136.89611"
     inkscape:cy="117.40574"
     inkscape:document-units="mm"
     inkscape:current-layer="layer1"
     inkscape:document-rotation="0"
     showgrid="false"
     inkscape:window-width="1346"
     inkscape:window-height="967"
     inkscape:window-x="26"
     inkscape:window-y="26"
     inkscape:window-maximized="0" />
  <metadata
     id="metadata5">
    <rdf:RDF>
      <cc:Work
         rdf:about="">
        <dc:format>image/svg+xml</dc:format>
        <dc:type
           rdf:resource="http://purl.org/dc/dcmitype/StillImage" />
        <dc:title />
      </cc:Work>
    </rdf:RDF>
  </metadata>
  <g
     inkscape:label="Layer 1"
     inkscape:groupmode="layer"
     id="layer1">
    <path
       style="fill:#ffffff;stroke-width:0.478899"
       d="m 39.655502,73.663231 -0.852272,-2.370087 3.351706,-6.130396 c 1.843441,-3.371719 4.646722,-8.48888 6.229517,-11.371469 2.561947,-4.665827 2.79264,-5.303353 2.101845,-5.808475 -0.711769,-0.520459 -0.705093,-0.67556 0.08072,-1.87483 0.843,-1.286585 0.833115,-1.354339 -0.619981,-4.24844 -1.945822,-3.875455 -2.357702,-7.531091 -1.290608,-11.454736 1.409255,-5.181742 5.620929,-9.561346 10.550388,-10.971061 2.801969,-0.8013 7.051685,-0.672314 9.572918,0.290554 2.005109,0.765757 2.138042,0.916959 1.646125,1.872325 -1.212241,2.354318 -2.426518,3.194348 -4.617469,3.194348 -1.771834,0 -2.386527,0.267063 -3.747725,1.628262 -1.389832,1.389831 -1.628262,1.957857 -1.628262,3.879095 0,1.921236 0.23843,2.489264 1.628262,3.879095 1.379493,1.379492 1.964621,1.62826 3.829825,1.62826 1.82361,0 2.510104,-0.276546 3.998817,-1.61089 0.98849,-0.885988 2.47413,-1.956887 3.301426,-2.379775 0.827292,-0.422889 2.148042,-1.644423 2.935005,-2.714522 l 1.430833,-1.945637 0.818735,2.046208 c 1.023601,2.558234 1.053234,7.57038 0.06115,10.339398 -2.154051,6.012106 -7.255451,9.856459 -13.903128,10.477228 -2.640018,0.246529 -3.107866,0.444939 -3.795985,1.609829 -0.503795,0.852855 -1.084781,1.25688 -1.622413,1.128248 -0.617699,-0.147788 -1.278559,0.586864 -2.517517,2.798646 -1.258857,2.247303 -1.979102,3.040554 -2.873403,3.164657 -2.282584,0.316748 -3.192257,2.164729 -1.682413,3.417787 1.097474,0.91082 0.06293,2.402855 -1.666089,2.402855 -1.884803,0 -2.758468,1.52824 -1.751896,3.064466 0.859421,1.31164 0.500999,2.018363 -1.246028,2.456835 -1.50144,0.376838 -1.511242,0.398652 -0.736539,1.639152 0.868298,1.390363 -0.321908,3.259584 -2.452339,3.851395 -3.162268,0.878443 -3.604499,0.694229 -4.533173,-1.888325 z M 18.768043,61.247636 v -2.334272 l 9.832156,-10.648989 c 8.056929,-8.726282 9.729449,-10.772749 9.263304,-11.334419 -0.449627,-0.541767 -0.367669,-0.957545 0.391033,-1.983742 l 0.959887,-1.298317 -1.599687,-4.308742 c -0.879829,-2.369807 -1.60117,-4.749891 -1.602981,-5.289075 -0.0018,-0.539183 0.804852,-1.756212 1.792585,-2.70451 3.312364,-3.180116 10.4101,-8.992151 10.989847,-8.999121 0.722943,-0.0086 6.370293,4.659838 6.370293,5.266168 0,0.247029 -0.615102,0.767225 -1.366895,1.155994 -2.275198,1.17655 -6.14403,5.814587 -7.321885,8.777631 -1.533305,3.857224 -1.550967,10.362831 -0.0372,13.699115 1.175493,2.590723 1.012165,3.391659 -0.608674,2.984853 -0.891135,-0.223661 -1.714488,0.385358 -4.534485,3.354082 -3.325773,3.501176 -3.477664,3.598377 -4.366262,2.794209 -0.87549,-0.79231 -0.967949,-0.790331 -1.885859,0.04036 l -0.965231,0.873527 0.964866,1.027053 0.964868,1.027055 -1.387619,1.329422 c -1.19559,1.145444 -1.532419,1.251928 -2.433975,0.769427 -0.856321,-0.458288 -1.214427,-0.407894 -1.971752,0.277479 -0.913717,0.826899 -0.913011,0.850649 0.05579,1.881893 0.877621,0.934187 0.902729,1.109535 0.237899,1.661296 -0.613779,0.509391 -0.895063,0.47952 -1.614373,-0.171446 -0.811983,-0.734834 -0.930135,-0.723073 -1.741393,0.173346 -0.83702,0.924901 -0.837465,0.997971 -0.01155,1.910498 0.702701,0.776475 0.749023,1.080931 0.255034,1.676152 -0.451975,0.544591 -1.611626,0.727331 -4.61565,0.727331 H 18.768086 Z M 63.296508,31.957134 c -0.982319,-1.835484 -0.577684,-2.793052 1.326258,-3.138564 4.275342,-0.775849 7.666292,-3.871603 8.782878,-8.01829 1.309189,-4.861966 -1.658328,-10.295307 -6.74755,-12.3543486 -1.843926,-0.7460331 -5.96093,-0.5755892 -7.739766,0.3204256 -0.879338,0.4429294 -2.40959,1.582176 -3.400567,2.531657 l -1.801769,1.726332 -1.292635,-1.292634 -1.292633,-1.292633 1.657703,-1.7264795 c 0.911736,-0.9495624 2.73523,-2.2957087 4.052206,-2.9914343 3.285411,-1.7355988 8.957906,-1.8249521 12.269627,-0.1932683 5.387022,2.6541809 8.341121,7.7653501 7.968967,13.7878811 -0.414527,6.708316 -4.609771,11.563348 -11.288629,13.063986 -1.751986,0.393644 -2.087675,0.33676 -2.49409,-0.42263 z"
       id="path847" />
  </g>
</svg>
