<?xml version="1.0" encoding="UTF-8" standalone="no"?>
<svg
   xmlns:dc="http://purl.org/dc/elements/1.1/"
   xmlns:cc="http://creativecommons.org/ns#"
   xmlns:rdf="http://www.w3.org/1999/02/22-rdf-syntax-ns#"
   xmlns:svg="http://www.w3.org/2000/svg"
   xmlns="http://www.w3.org/2000/svg"
   xmlns:sodipodi="http://sodipodi.sourceforge.net/DTD/sodipodi-0.dtd"
   xmlns:inkscape="http://www.inkscape.org/namespaces/inkscape"
   width="100mm"
   height="80mm"
   viewBox="0 0 100 80"
   version="1.1"
   id="svg8"
   inkscape:version="1.0.1 (3bc2e813f5, 2020-09-07)"
   sodipodi:docname="sprzedaz.svg">
  <defs
     id="defs2" />
  <sodipodi:namedview
     id="base"
     pagecolor="#ffffff"
     bordercolor="#666666"
     borderopacity="1.0"
     inkscape:pageopacity="0.0"
     inkscape:pageshadow="2"
     inkscape:zoom="0.98994949"
     inkscape:cx="336.59913"
     inkscape:cy="205.02495"
     inkscape:document-units="mm"
     inkscape:current-layer="layer1"
     inkscape:document-rotation="0"
     showgrid="false"
     inkscape:window-width="1346"
     inkscape:window-height="967"
     inkscape:window-x="26"
     inkscape:window-y="26"
     inkscape:window-maximized="0" />
  <metadata
     id="metadata5">
    <rdf:RDF>
      <cc:Work
         rdf:about="">
        <dc:format>image/svg+xml</dc:format>
        <dc:type
           rdf:resource="http://purl.org/dc/dcmitype/StillImage" />
        <dc:title />
      </cc:Work>
    </rdf:RDF>
  </metadata>
  <g
     inkscape:label="Layer 1"
     inkscape:groupmode="layer"
     id="layer1">
    <path
       style="fill:#ffffff;stroke-width:0.543236"
       d="M 44.389339,69.18594 C 43.492999,68.79325 39.826148,66.171763 36.240784,63.360406 18.607985,49.534196 18.15738,49.218394 17.049398,49.910341 16.206961,50.436451 14.964224,50.265467 10.433321,49.000057 4.6047795,47.372239 3.1502294,46.525408 3.6178239,45.032111 3.8913214,44.158678 6.3939068,35.149416 11.008994,18.424028 c 1.26435,-4.582092 2.617777,-8.4534728 3.007614,-8.6030675 0.67525,-0.2591174 9.459411,1.9909595 12.038483,3.0836795 0.672255,0.284826 1.222283,0.889791 1.222283,1.344366 0,0.986557 -0.230442,0.977085 5.481802,0.225296 2.917002,-0.383907 4.960775,-0.95079 5.654555,-1.568407 0.597561,-0.53196 2.186529,-1.524799 3.531041,-2.206314 3.796702,-1.9244873 8.536414,-1.625604 20.621255,1.300371 8.46134,2.048653 10.116411,2.308148 10.593121,1.660865 0.659801,-0.895878 11.984749,-4.2336275 13.018578,-3.836908 0.385607,0.1479726 1.735244,4.018027 2.99916,8.600119 1.263918,4.582091 3.479052,12.579472 4.922497,17.771954 1.443468,5.192484 2.496974,9.773153 2.341118,10.179265 -0.260754,0.679532 -3.43345,1.796086 -10.140961,3.568864 -2.497287,0.660028 -2.686674,0.632948 -3.618115,-0.517329 -1.307392,-1.614565 -3.796537,-1.662439 -3.796537,-0.07301 0,1.635855 -3.378668,4.834809 -5.106426,4.834809 -1.146622,0 -1.412417,0.257075 -1.412417,1.366073 0,0.798035 -0.773238,2.209815 -1.859588,3.395231 -1.628455,1.776949 -2.168618,2.029157 -4.345896,2.029157 -1.725114,0 -2.486307,0.224526 -2.486307,0.733372 0,0.403352 -0.861673,1.595041 -1.914824,2.648192 -1.772458,1.772458 -2.105676,1.894481 -4.481706,1.641164 -1.411787,-0.15052 -2.933567,-0.425867 -3.381737,-0.611903 -0.542503,-0.225188 -1.128486,0.21429 -1.753211,1.314894 -0.868699,1.530418 -3.797536,3.266179 -5.427232,3.216431 -0.383072,-0.01164 -1.429863,-0.342555 -2.326205,-0.735246 z m 4.508868,-3.698037 c 0.358536,-0.358536 0.651884,-1.329822 0.651884,-2.158405 0,-1.25917 -0.796356,-2.110965 -4.850264,-5.187913 -5.058773,-3.839653 -5.641915,-4.505851 -5.12445,-5.85434 0.620782,-1.617739 2.441481,-0.726435 9.003583,4.407622 8.18403,6.403023 8.62837,6.632377 10.488327,5.413683 2.687822,-1.761123 1.781307,-3.24106 -5.442918,-8.885843 -4.766653,-3.724512 -6.518844,-5.410883 -6.518844,-6.273963 0,-2.548336 2.090003,-1.609659 10.01887,4.499747 4.812157,3.707898 8.271566,5.999505 9.056852,5.999505 1.713779,0 3.210043,-2.255706 2.444767,-3.685633 -0.532327,-0.994663 -4.330722,-4.184941 -11.016628,-9.252877 -1.692385,-1.282833 -3.20985,-2.678467 -3.372148,-3.10141 -0.279872,-0.729336 0.946805,-2.44103 1.73469,-2.420566 0.202731,0.0053 3.791019,2.689982 7.973943,5.966035 4.432928,3.471852 8.109943,5.960452 8.81508,5.966031 1.480881,0.01164 3.082757,-2.249668 2.621976,-3.701467 -0.18296,-0.57643 -4.880723,-4.560819 -10.439493,-8.854199 -5.558765,-4.293381 -11.281716,-8.722859 -12.717667,-9.843285 -1.435948,-1.120428 -2.820255,-2.037139 -3.076235,-2.037139 -0.255981,0 -1.431743,0.99854 -2.612805,2.218979 -3.05096,3.152675 -5.551914,4.299865 -9.374004,4.299865 -2.281268,0 -3.867107,-0.355092 -5.542438,-1.241026 -3.818655,-2.019353 -3.830145,-2.300998 -0.33727,-8.267028 1.705383,-2.912891 2.999293,-5.397571 2.875352,-5.521512 -0.123956,-0.123929 -1.855109,-0.05838 -3.847044,0.145714 -2.493012,0.255416 -3.765639,0.643235 -4.083572,1.24442 -0.466301,0.881735 -4.460285,14.937196 -6.301183,22.174867 l -0.996523,3.917918 1.565564,1.242833 c 0.861057,0.683559 6.833856,5.327461 13.272883,10.319783 11.672475,9.049927 13.516892,10.082429 15.129715,8.469608 z M 17.66103,36.533371 c 1.386452,-5.079266 3.227049,-11.801824 4.090216,-14.939019 l 1.569391,-5.703989 -3.035158,-0.966542 c -1.669334,-0.531596 -3.382198,-0.898281 -3.806361,-0.814855 -0.489686,0.09632 -1.40748,2.531322 -2.514234,6.670531 -0.958664,3.585365 -2.782049,10.269405 -4.0519673,14.853423 -1.2762557,4.606893 -2.1005826,8.538019 -1.8430794,8.789443 0.6695927,0.653787 6.3816187,2.072111 6.7559187,1.677527 0.172938,-0.182323 1.448822,-4.487254 2.835274,-9.566519 z m 74.455784,7.883534 c 0.25677,-0.247689 -0.570497,-4.190405 -1.843078,-8.783985 -1.269912,-4.584018 -3.0933,-11.268058 -4.051969,-14.853423 -1.106749,-4.139209 -2.024541,-6.574216 -2.514227,-6.670531 -0.424164,-0.08342 -2.13703,0.283259 -3.806364,0.814855 l -3.035158,0.966542 1.567328,5.703989 c 0.862028,3.137195 2.673702,9.737523 4.025945,14.667399 1.352236,4.929877 2.552855,9.249711 2.668043,9.599632 0.155835,0.473409 1.017335,0.427494 3.366522,-0.179428 1.736414,-0.448605 3.366742,-1.017878 3.622958,-1.26505 z M 80.705646,44.540669 C 80.964763,44.121412 77.99798,32.579406 75.239267,23.274239 l -1.51513,-5.110571 -11.679595,-2.654689 c -18.005338,-4.092482 -19.738384,-3.648633 -25.912603,6.636465 -1.880688,3.132875 -3.420055,5.869663 -3.420815,6.081755 -7.59e-4,0.212092 0.952865,0.671521 2.119167,1.020953 3.277902,0.982084 5.891293,0.231188 8.590859,-2.468374 2.60924,-2.609242 2.806259,-3.260611 1.239807,-4.098951 -1.312989,-0.702692 -1.445546,-3.005392 -0.200512,-3.483159 1.012257,-0.388438 -0.05096,-1.148934 18.942186,13.548973 16.170854,12.51387 16.654417,12.843478 17.30301,11.794032 z"
       id="path905" />
  </g>
</svg>
